<?xml version="1.0" standalone="no"?>
<!DOCTYPE svg PUBLIC "-//W3C//DTD SVG 20010904//EN"
 "http://www.w3.org/TR/2001/REC-SVG-20010904/DTD/svg10.dtd">
<svg version="1.0" xmlns="http://www.w3.org/2000/svg"
 width="3279.000000pt" height="972.000000pt" viewBox="0 0 3279.000000 972.000000"
 preserveAspectRatio="xMidYMid meet">

<g transform="translate(0.000000,972.000000) scale(0.100000,-0.100000)"
fill="#000000" stroke="none">
<path d="M4385 8303 c-936 -62 -1812 -456 -2460 -1107 -596 -599 -949 -1343
-1026 -2159 -17 -187 -7 -583 21 -762 113 -741 445 -1408 974 -1952 606 -625
1396 -1017 2261 -1122 88 -11 205 -22 260 -25 l100 -5 -165 29 c-670 115
-1253 375 -1771 787 -74 59 -213 186 -309 282 -234 235 -390 434 -550 701
-255 425 -415 889 -476 1385 -21 171 -24 568 -6 730 83 720 352 1342 823 1905
120 143 359 377 504 493 432 345 948 600 1482 731 121 29 202 45 443 85 l55 9
-55 -1 c-30 0 -77 -2 -105 -4z"/>
<path d="M5477 7946 c-80 -30 -113 -88 -104 -186 9 -103 80 -200 181 -246 159
-73 296 -11 296 133 0 100 -86 220 -193 272 -77 38 -130 45 -180 27z"/>
<path d="M6479 7641 c-19 -15 -24 -28 -23 -64 3 -155 221 -332 322 -261 17 12
22 25 22 61 0 63 -32 126 -97 191 -84 85 -174 114 -224 73z"/>
<path d="M4542 7559 c-211 -41 -315 -287 -185 -439 58 -67 102 -85 213 -85 84
0 101 3 146 27 100 52 165 166 150 262 -25 159 -171 265 -324 235z"/>
<path d="M6000 6989 c-66 -13 -145 -55 -181 -96 -86 -98 -112 -251 -68 -398
82 -276 380 -445 603 -341 232 107 249 442 34 671 -121 130 -263 190 -388 164z"/>
<path d="M29190 6678 c-46 -51 -76 -57 -292 -58 -191 0 -176 6 -247 -98 -51
-76 -62 -103 -50 -125 16 -27 36 -20 80 28 l42 45 203 0 204 0 70 88 c75 93
89 124 70 147 -20 24 -42 16 -80 -27z"/>
<path d="M7163 6569 c-145 -72 -116 -364 52 -532 123 -124 271 -125 335 -2 52
102 22 264 -74 400 -49 67 -93 106 -158 135 -56 25 -103 25 -155 -1z"/>
<path d="M4335 6409 c-80 -10 -264 -55 -312 -74 -25 -11 -34 -22 -43 -57 -17
-69 -50 -159 -81 -220 l-29 -58 27 -5 c98 -21 166 -67 211 -143 25 -43 27 -56
27 -147 0 -92 -2 -104 -30 -154 -93 -169 -310 -223 -453 -114 -42 31 -90 105
-98 150 -3 18 -8 33 -9 33 -2 0 -27 -16 -56 -36 -89 -61 -229 -123 -324 -145
-49 -11 -96 -24 -104 -28 -19 -10 -76 -181 -101 -301 -61 -297 -45 -566 50
-851 157 -472 534 -851 1005 -1008 177 -59 280 -75 490 -75 167 0 205 4 316
27 644 136 1122 580 1272 1182 39 155 50 247 51 410 0 396 -130 755 -382 1059
-216 259 -561 461 -917 536 -115 24 -395 35 -510 19z"/>
<path d="M13624 6316 c-41 -50 -52 -73 -162 -356 -384 -987 -379 -975 -431
-1028 -17 -16 -62 -42 -101 -57 -70 -27 -105 -59 -80 -75 19 -12 521 -3 534
10 18 18 -4 39 -67 65 -80 32 -97 49 -97 99 0 74 92 370 127 409 14 15 39 17
238 17 166 0 225 -3 233 -12 16 -21 131 -369 138 -419 8 -59 -11 -80 -89 -103
-55 -16 -76 -37 -54 -54 7 -5 138 -12 292 -16 233 -5 284 -4 300 8 28 20 6 42
-59 61 -104 31 -133 63 -202 227 -49 116 -228 592 -350 933 -58 160 -108 296
-112 304 -15 26 -29 23 -58 -13z m66 -550 c44 -126 79 -235 76 -243 -5 -11
-40 -13 -188 -11 l-183 3 3 24 c4 26 157 453 174 485 10 19 11 18 23 -5 7 -13
50 -127 95 -253z"/>
<path d="M16005 6343 c-207 -28 -415 -130 -538 -262 -161 -175 -234 -417 -193
-649 58 -334 265 -547 626 -648 52 -15 101 -19 240 -18 264 0 435 43 487 122
26 40 83 183 90 229 7 41 -4 83 -21 83 -7 0 -39 -40 -70 -90 -66 -104 -122
-157 -217 -204 -264 -132 -634 -7 -797 270 -103 174 -137 421 -86 622 57 225
236 408 450 458 93 22 265 14 347 -15 145 -51 214 -117 257 -247 26 -76 41
-92 65 -68 15 16 16 33 10 153 -4 75 -12 147 -18 161 -10 20 -29 29 -115 51
-195 52 -380 71 -517 52z"/>
<path d="M20555 6334 c-99 -22 -210 -67 -282 -114 -92 -60 -212 -192 -262
-288 -65 -126 -84 -211 -84 -377 0 -123 3 -150 26 -228 61 -200 173 -346 346
-451 294 -179 721 -144 959 78 112 105 182 219 228 373 24 77 27 106 28 233 1
123 -2 157 -22 225 -76 261 -279 458 -552 535 -102 29 -289 36 -385 14z m215
-80 c211 -49 369 -199 461 -437 108 -281 54 -651 -124 -843 -186 -201 -521
-170 -743 69 -76 82 -164 248 -188 357 -61 267 2 575 148 724 82 84 219 144
331 145 28 0 79 -6 115 -15z"/>
<path d="M26738 6334 c-174 -42 -291 -162 -320 -331 -10 -60 -9 -80 5 -139 34
-138 124 -240 335 -383 211 -143 282 -232 282 -354 0 -84 -23 -147 -72 -198
-55 -56 -114 -81 -197 -81 -74 0 -149 24 -213 68 -47 33 -70 64 -123 163 -22
42 -47 77 -56 79 -8 1 -21 -9 -29 -23 -19 -35 12 -224 46 -277 27 -42 67 -58
219 -84 200 -36 421 24 524 141 83 94 121 214 103 322 -25 150 -111 253 -352
418 -168 115 -221 161 -258 224 -24 40 -27 57 -27 131 0 96 18 141 77 196 57
54 94 68 183 69 69 0 87 -4 130 -28 57 -32 94 -73 132 -149 32 -66 51 -88 75
-88 15 0 18 8 18 42 0 80 -23 219 -39 239 -11 14 -46 25 -119 39 -118 23 -241
25 -324 4z"/>
<path d="M28897 6313 c-51 -81 -73 -132 -233 -548 -239 -617 -281 -724 -317
-783 -34 -57 -80 -91 -154 -113 -48 -14 -78 -41 -70 -62 5 -12 49 -14 267 -12
174 3 266 7 274 15 18 18 -4 39 -68 65 -82 33 -100 53 -98 109 2 46 53 228 92
327 37 94 23 89 276 89 l223 0 15 -27 c24 -48 124 -356 131 -405 9 -58 -10
-79 -88 -102 -55 -16 -76 -37 -54 -54 15 -12 568 -25 585 -13 30 18 8 46 -53
67 -33 11 -70 26 -83 33 -64 35 -139 213 -436 1036 -146 404 -151 415 -171
415 -8 0 -25 -17 -38 -37z m6 -365 c71 -187 148 -419 142 -428 -4 -6 -84 -10
-192 -10 l-185 0 7 28 c13 55 179 502 186 502 3 0 22 -42 42 -92z"/>
<path d="M31175 6334 c-100 -22 -215 -69 -284 -115 -90 -60 -210 -193 -259
-286 -66 -128 -86 -214 -86 -373 0 -143 11 -205 58 -322 37 -90 85 -164 153
-234 163 -168 386 -253 627 -241 196 9 366 75 491 189 113 104 184 219 231
375 24 77 27 106 28 233 1 166 -11 226 -74 355 -93 193 -277 342 -500 405
-102 29 -289 36 -385 14z m214 -79 c189 -45 330 -164 426 -360 75 -152 104
-322 85 -495 -36 -324 -191 -523 -433 -553 -168 -21 -319 35 -453 168 -123
121 -199 267 -229 440 -18 104 -19 159 -4 280 28 229 121 391 267 468 124 66
220 80 341 52z"/>
<path d="M11740 6313 c-68 -2 -128 -7 -133 -12 -5 -5 -28 -56 -52 -115 -24
-59 -128 -270 -232 -469 -103 -199 -208 -401 -233 -450 -28 -54 -50 -86 -59
-85 -21 4 -444 858 -516 1043 l-31 80 -197 3 c-188 2 -197 2 -197 -17 0 -26
15 -35 96 -59 130 -39 150 -73 139 -235 -31 -477 -68 -895 -86 -976 -20 -88
-55 -125 -146 -152 -24 -6 -50 -20 -58 -29 -14 -15 -14 -18 0 -30 12 -10 74
-14 253 -15 130 -1 247 2 260 7 12 4 22 16 22 27 0 18 -6 22 -92 53 -59 21
-87 47 -99 91 -21 77 6 964 30 989 6 7 51 -85 266 -542 100 -212 177 -397 220
-528 27 -83 45 -104 72 -86 7 5 48 90 90 189 89 207 464 958 478 956 6 -1 10
-184 10 -494 0 -583 8 -541 -118 -591 -39 -16 -56 -41 -40 -57 11 -11 555 -21
580 -12 17 7 17 37 0 51 -6 6 -26 14 -42 18 -17 4 -51 17 -77 30 -61 31 -75
69 -88 244 -17 224 -25 959 -11 1002 17 53 59 84 137 101 73 17 98 34 85 56
-10 16 -58 19 -231 14z"/>
<path d="M17875 6310 c-99 -3 -181 -7 -182 -8 -2 -1 -3 -11 -3 -22 0 -23 18
-33 86 -49 58 -14 90 -39 101 -79 5 -15 8 -283 8 -597 0 -460 -3 -576 -14
-602 -15 -38 -53 -63 -129 -88 -54 -17 -73 -38 -54 -57 7 -7 107 -12 296 -13
232 -2 288 0 297 11 18 21 -5 41 -68 59 -78 23 -110 57 -117 126 -9 92 -18
483 -11 502 15 36 159 16 206 -29 16 -15 108 -146 204 -290 96 -144 191 -276
211 -292 96 -79 228 -120 334 -103 61 10 100 26 100 40 0 16 -36 38 -92 55
-73 22 -126 62 -206 156 -107 127 -332 470 -332 506 0 8 26 31 58 50 106 68
166 142 196 243 21 73 20 135 -4 213 -35 114 -112 199 -216 237 -110 42 -211
46 -669 31z m481 -91 c76 -29 136 -86 177 -168 43 -89 44 -176 2 -269 -57
-126 -151 -183 -334 -202 -120 -12 -111 -35 -111 300 0 165 4 300 10 315 13
34 40 44 127 44 51 1 89 -5 129 -20z"/>
<path d="M22394 6306 c-27 -21 -10 -41 53 -64 64 -24 111 -64 148 -126 24 -42
160 -381 323 -807 92 -239 155 -425 167 -491 4 -20 16 -45 26 -54 19 -17 21
-17 41 3 11 12 37 70 58 130 98 288 486 1167 555 1257 25 32 80 65 178 104 31
13 35 36 10 51 -17 9 -442 5 -490 -5 -14 -3 -23 -12 -23 -23 0 -19 17 -29 92
-56 61 -23 83 -47 82 -94 -1 -24 -71 -202 -199 -506 -108 -259 -200 -474 -205
-478 -8 -9 -36 54 -137 313 -154 393 -253 664 -253 694 0 42 24 64 91 81 60
16 88 41 67 61 -19 18 -561 27 -584 10z"/>
<path d="M24789 6308 c-39 -15 -18 -42 46 -61 92 -28 103 -34 122 -64 17 -25
18 -65 18 -598 0 -601 -2 -636 -46 -673 -10 -9 -49 -26 -87 -38 -59 -18 -67
-23 -67 -45 l0 -24 309 -8 c276 -8 310 -7 324 7 15 14 15 18 1 31 -8 8 -45 24
-83 34 -78 22 -111 49 -129 105 -18 60 -17 1069 1 1146 17 72 42 96 124 121
68 20 91 40 70 61 -13 13 -571 18 -603 6z"/>
<path d="M6989 5176 c-113 -40 -185 -155 -196 -312 -10 -129 34 -250 117 -328
61 -58 103 -76 172 -76 68 0 126 29 182 91 131 146 126 399 -12 551 -69 76
-174 106 -263 74z"/>
<path d="M8026 5045 c-89 -89 -89 -330 0 -434 102 -119 224 -12 224 196 0 103
-24 176 -76 230 -54 57 -97 59 -148 8z"/>
<path d="M7373 3665 c-66 -30 -129 -95 -171 -172 -119 -223 -54 -474 122 -473
93 1 179 57 248 164 96 149 106 359 20 450 -57 60 -134 71 -219 31z"/>
<path d="M15875 3568 c-3 -7 -11 -49 -19 -93 -15 -89 -6 -119 22 -75 10 14 29
38 43 54 26 29 27 30 124 28 53 -1 102 -5 107 -8 12 -8 0 -587 -13 -622 -5
-12 -21 -27 -36 -33 -46 -18 -57 -25 -61 -37 -3 -9 39 -12 162 -12 187 0 223
14 116 45 -58 17 -60 27 -60 363 l0 302 114 0 c121 0 146 -9 146 -50 0 -28 11
-50 25 -50 12 0 51 168 40 178 -3 3 -17 -1 -32 -9 -21 -11 -85 -14 -319 -14
-289 0 -293 0 -323 23 -23 17 -33 19 -36 10z"/>
<path d="M13378 3531 c-74 -24 -116 -51 -168 -107 -73 -79 -118 -212 -104
-308 14 -99 45 -166 105 -230 126 -135 315 -168 486 -85 184 89 263 341 168
535 -35 71 -128 156 -202 185 -81 31 -208 36 -285 10z m218 -54 c198 -100 257
-431 109 -605 -93 -108 -273 -94 -379 30 -106 124 -133 313 -67 463 57 130
206 179 337 112z"/>
<path d="M17475 3526 c-10 -14 -68 -155 -130 -314 -143 -365 -144 -367 -203
-395 -26 -12 -46 -27 -45 -32 2 -6 52 -11 115 -13 166 -4 198 9 112 48 l-47
20 7 42 c7 42 50 175 60 185 3 3 54 8 113 10 85 4 111 3 120 -8 14 -18 73
-194 73 -220 0 -15 -12 -25 -40 -36 -83 -33 -43 -45 134 -41 142 3 165 14 92
42 -24 9 -51 27 -59 39 -20 31 -74 168 -177 450 -48 133 -93 243 -98 245 -6 2
-18 -8 -27 -22z m39 -264 c20 -57 36 -110 36 -118 0 -11 -19 -14 -90 -14 -49
0 -90 4 -90 9 0 11 77 229 86 243 9 15 16 0 58 -120z"/>
<path d="M21768 3531 c-144 -47 -241 -159 -268 -310 -39 -218 111 -425 336
-461 107 -18 244 19 322 85 120 101 170 308 112 460 -32 84 -131 183 -215 215
-83 32 -210 37 -287 11z m218 -54 c135 -68 214 -251 185 -423 -32 -180 -120
-263 -266 -252 -220 18 -356 299 -263 545 53 143 205 200 344 130z"/>
<path d="M24585 3537 c-189 -63 -295 -215 -283 -406 7 -101 38 -178 98 -244
60 -66 128 -104 221 -123 127 -26 257 7 347 91 178 164 175 460 -7 604 -74 59
-146 85 -246 88 -55 2 -105 -2 -130 -10z m159 -41 c182 -55 283 -293 216 -509
-25 -81 -93 -161 -148 -177 -142 -39 -278 33 -354 188 -32 64 -33 71 -33 187
0 104 3 127 23 170 30 65 66 102 127 131 58 27 102 30 169 10z"/>
<path d="M26130 3531 c-83 -27 -130 -54 -183 -107 -136 -137 -149 -354 -31
-516 99 -134 307 -185 529 -128 112 28 123 36 95 65 -29 31 -29 166 0 195 11
11 27 20 35 20 18 0 20 30 3 31 -56 4 -291 -1 -296 -6 -11 -11 30 -35 59 -35
50 0 72 -30 77 -104 8 -117 -26 -152 -145 -150 -117 3 -228 78 -282 193 -23
50 -26 68 -26 171 0 105 2 120 27 171 55 111 138 169 254 177 124 8 204 -35
251 -132 10 -21 23 -37 28 -35 10 4 11 113 1 154 -5 20 -17 25 -93 39 -115 21
-233 20 -303 -3z"/>
<path d="M28654 3525 c-9 -14 -68 -155 -129 -314 -143 -364 -144 -366 -203
-394 -26 -12 -46 -27 -45 -32 2 -6 52 -11 115 -13 166 -4 198 9 112 48 l-47
20 7 42 c7 42 50 175 60 185 3 3 54 8 113 10 85 5 111 3 119 -8 15 -18 74
-195 74 -221 0 -14 -12 -24 -40 -35 -83 -33 -43 -45 134 -41 142 3 165 14 92
42 -24 9 -51 27 -59 39 -20 31 -74 168 -177 450 -48 133 -93 243 -98 245 -6 2
-18 -9 -28 -23z m40 -263 c20 -57 36 -110 36 -118 0 -11 -19 -14 -90 -14 -49
0 -90 4 -90 9 0 11 77 229 86 243 9 15 16 0 58 -120z"/>
<path d="M14640 3532 c-23 -8 -7 -30 28 -40 25 -8 43 -21 50 -37 13 -28 15
-420 3 -550 l-6 -70 -49 -23 c-31 -15 -45 -27 -39 -33 5 -5 74 -8 159 -7 121
2 149 6 149 17 0 8 -19 21 -43 29 -23 7 -47 22 -52 33 -6 11 -9 71 -8 141 l3
123 70 3 c109 5 132 -2 156 -50 11 -22 24 -37 29 -32 10 11 17 210 8 219 -4 4
-18 -11 -32 -34 -31 -48 -46 -53 -151 -49 l-80 3 -3 144 c-2 104 1 147 10 158
10 13 31 14 108 10 52 -2 102 -8 111 -11 9 -4 26 -30 38 -59 20 -47 23 -49 38
-35 13 14 14 27 7 83 l-9 66 -243 2 c-133 1 -247 1 -252 -1z"/>
<path d="M18672 3533 c-92 -3 -122 -7 -119 -16 2 -7 18 -17 37 -23 63 -21 63
-18 57 -337 -6 -324 -7 -328 -77 -347 -24 -6 -40 -17 -40 -25 0 -13 41 -15
280 -15 256 0 280 1 288 18 15 30 45 153 38 159 -3 3 -34 -24 -68 -60 l-63
-67 -101 0 c-85 0 -106 3 -125 19 l-24 19 -3 297 c-3 331 -4 327 63 339 19 4
37 12 41 18 8 13 -15 28 -41 26 -11 -1 -75 -4 -143 -5z"/>
<path d="M20670 3532 l-65 -4 -140 -279 c-76 -153 -143 -279 -147 -279 -8 0
-188 356 -246 488 l-32 72 -101 0 c-89 0 -100 -2 -89 -15 7 -8 30 -20 51 -25
22 -6 44 -20 50 -32 23 -43 -17 -561 -47 -605 -9 -14 -34 -32 -55 -41 -69 -27
-42 -37 102 -37 109 0 134 3 134 14 0 8 -13 19 -30 24 -65 21 -65 21 -64 231
1 105 4 220 8 256 l6 65 96 -205 c53 -113 109 -239 124 -280 33 -92 38 -101
50 -103 11 -2 16 7 100 193 36 80 94 198 129 263 l63 119 7 -156 c7 -142 3
-284 -10 -344 -3 -15 -17 -29 -39 -38 -19 -8 -35 -19 -35 -24 0 -17 41 -21
170 -18 100 2 125 6 125 17 0 8 -14 19 -32 25 -59 20 -64 32 -74 177 -11 181
-11 432 1 463 6 18 22 28 52 37 54 15 68 27 48 39 -8 5 -22 9 -30 8 -8 -1 -44
-4 -80 -6z"/>
<path d="M23145 3530 c-123 -5 -148 -16 -86 -36 64 -21 63 -18 58 -336 -5
-324 -6 -329 -77 -348 -24 -6 -40 -17 -40 -25 0 -13 41 -15 280 -15 256 0 280
1 288 18 15 29 45 152 39 158 -3 4 -34 -24 -69 -60 l-63 -66 -102 0 c-84 0
-105 3 -124 19 l-24 19 -3 292 c-4 326 -2 332 62 344 19 4 38 12 42 18 8 13
-15 28 -41 26 -11 -1 -74 -4 -140 -8z"/>
<path d="M27308 3529 c-16 -10 -1 -27 32 -34 61 -13 60 -9 60 -328 0 -323 -2
-333 -60 -352 -19 -7 -35 -18 -35 -26 0 -11 30 -15 158 -17 133 -2 157 0 157
12 0 9 -16 20 -40 26 -70 19 -70 19 -70 340 0 315 2 326 59 345 32 10 54 34
34 36 -50 4 -287 2 -295 -2z"/>
<path d="M6150 3496 c-76 -23 -101 -35 -165 -81 -137 -98 -215 -252 -215 -426
0 -184 97 -328 254 -374 217 -65 481 100 568 354 32 93 32 241 -1 323 -29 75
-98 150 -168 184 -46 23 -72 28 -142 31 -51 1 -104 -3 -131 -11z"/>
<path d="M4466 2544 c-158 -50 -229 -187 -179 -345 23 -72 116 -168 187 -192
119 -40 243 -11 323 77 55 60 73 107 73 192 0 108 -69 208 -175 255 -64 28
-164 34 -229 13z"/>
<path d="M6789 2264 c-145 -44 -266 -277 -184 -354 83 -78 290 64 326 224 10
45 9 58 -6 89 -15 33 -27 41 -75 52 -8 2 -36 -3 -61 -11z"/>
<path d="M5677 2070 c-142 -36 -242 -150 -254 -291 -5 -49 -2 -67 20 -112 68
-137 252 -134 392 7 69 69 98 133 99 217 1 55 -3 72 -26 106 -43 66 -138 96
-231 73z"/>
</g>
</svg>
