<?xml version="1.0" standalone="no"?>
<!DOCTYPE svg PUBLIC "-//W3C//DTD SVG 20010904//EN"
 "http://www.w3.org/TR/2001/REC-SVG-20010904/DTD/svg10.dtd">
<svg version="1.0" xmlns="http://www.w3.org/2000/svg"
 width="631.000000pt" height="395.000000pt" viewBox="0 0 631.000000 395.000000"
 preserveAspectRatio="xMidYMid meet">

<g transform="translate(0.000000,395.000000) scale(0.100000,-0.100000)"
fill="#000000" stroke="none">
<path d="M1920 3773 c-41 -8 -79 -18 -84 -23 -12 -12 12 -142 45 -242 126
-382 413 -641 819 -740 74 -18 354 -17 444 1 l69 14 -6 66 c-11 126 -65 279
-144 412 -158 267 -420 450 -726 510 -118 23 -307 24 -417 2z"/>
<path d="M4115 3770 c-100 -20 -187 -51 -285 -100 -214 -108 -399 -306 -497
-531 -41 -95 -83 -254 -83 -314 l0 -42 58 -13 c88 -19 298 -24 393 -10 400 58
743 346 875 733 29 84 58 247 47 258 -4 4 -46 15 -92 23 -112 21 -300 19 -416
-4z"/>
<path d="M3010 3445 c0 -17 14 -35 47 -62 26 -21 65 -55 85 -76 45 -45 50 -29
13 42 -34 68 -86 121 -119 121 -21 0 -26 -5 -26 -25z"/>
<path d="M3365 3435 c-33 -34 -85 -122 -85 -145 0 -5 38 22 85 61 63 53 85 78
85 95 0 37 -42 31 -85 -11z"/>
<path d="M1823 3274 c-35 -19 -63 -42 -63 -50 0 -35 83 -169 162 -262 120
-140 331 -270 508 -312 126 -29 265 -35 383 -16 87 14 200 45 234 65 7 3 -47
7 -120 7 -145 1 -221 12 -341 50 -166 53 -310 137 -438 254 -71 64 -175 195
-209 261 -11 23 -27 39 -37 39 -9 0 -45 -16 -79 -36z"/>
<path d="M4490 3222 c-97 -153 -284 -319 -455 -405 -65 -32 -222 -83 -305 -98
-36 -7 -125 -12 -198 -12 -76 0 -127 -4 -120 -9 34 -22 184 -59 280 -70 294
-33 586 72 802 288 89 90 206 263 206 306 0 17 -117 88 -142 88 -7 -1 -38 -40
-68 -88z"/>
<path d="M3172 3227 c-47 -50 -10 -137 58 -137 69 0 107 91 57 138 -32 30 -87
29 -115 -1z"/>
<path d="M3145 2699 c-130 -75 -315 -119 -495 -119 l-107 0 -51 -54 c-139
-147 -228 -369 -220 -552 l3 -69 95 -3 c142 -5 253 20 385 85 88 44 133 77
213 156 143 140 226 315 246 520 8 78 6 79 -69 36z"/>
<path d="M3246 2668 c42 -447 406 -778 840 -766 l99 3 3 58 c9 181 -84 419
-220 563 l-51 54 -107 0 c-181 0 -353 41 -497 119 -31 17 -60 31 -65 31 -4 0
-5 -28 -2 -62z"/>
<path d="M3540 1711 c-171 -35 -281 -210 -267 -426 11 -173 92 -291 231 -335
60 -19 201 -9 254 19 131 67 201 215 189 401 -5 94 -29 168 -72 225 -73 94
-208 141 -335 116z m126 -38 c31 -20 71 -101 90 -179 23 -98 15 -303 -15 -396
-44 -136 -125 -177 -201 -100 -61 61 -82 133 -87 297 -4 106 -1 156 11 208 39
165 114 228 202 170z"/>
<path d="M5777 1710 c-137 -35 -236 -157 -259 -320 -26 -186 41 -347 176 -418
46 -24 61 -27 156 -27 98 0 109 2 159 30 129 71 188 202 179 395 -4 76 -10
108 -33 158 -32 72 -93 133 -161 162 -54 23 -163 33 -217 20z m107 -24 c98
-41 152 -236 128 -454 -15 -126 -42 -201 -88 -241 -68 -60 -136 -33 -185 74
-90 198 -45 568 74 620 40 18 32 17 71 1z"/>
<path d="M381 1518 c-34 -101 -85 -252 -114 -337 -40 -121 -59 -162 -84 -187
-17 -18 -29 -35 -26 -38 11 -10 183 -7 183 4 0 5 -16 16 -35 24 -23 10 -37 24
-41 41 -7 29 28 179 48 202 7 9 38 13 98 13 100 0 86 15 136 -139 29 -91 26
-111 -16 -121 -13 -3 -25 -11 -28 -18 -3 -9 34 -12 152 -12 86 0 156 3 156 7
0 4 -9 17 -21 29 -22 23 -54 109 -183 487 l-78 227 -43 0 -43 0 -61 -182z m68
-116 c18 -59 36 -115 38 -124 5 -16 -4 -18 -82 -18 -65 0 -86 3 -83 13 3 6 22
63 42 125 21 61 41 112 44 112 4 0 22 -48 41 -108z"/>
<path d="M890 1692 c0 -4 14 -13 30 -19 l30 -11 0 -319 c0 -272 -2 -322 -16
-341 -8 -12 -22 -22 -30 -22 -8 0 -14 -7 -14 -15 0 -12 17 -15 90 -15 96 0
113 10 55 34 -21 9 -39 26 -45 42 -6 16 -9 114 -8 243 l3 216 198 -265 c171
-229 202 -265 227 -268 l29 -3 3 338 c3 354 6 375 48 388 45 14 15 25 -70 25
-53 0 -90 -4 -90 -10 0 -5 6 -10 14 -10 8 0 28 -11 43 -24 l28 -24 3 -196 c2
-108 0 -196 -5 -196 -4 0 -87 103 -183 230 l-175 229 -82 0 c-46 1 -83 -3 -83
-7z"/>
<path d="M1750 1363 c-97 -286 -120 -342 -147 -369 -17 -18 -29 -35 -26 -38 4
-3 49 -6 100 -6 69 0 94 3 91 12 -3 7 -19 16 -37 20 -50 14 -57 46 -31 147 11
47 26 91 32 98 8 10 35 13 102 11 l91 -3 32 -95 c38 -113 39 -152 4 -160 -14
-3 -26 -11 -29 -18 -3 -9 33 -12 147 -12 156 0 172 5 131 38 -13 11 -60 134
-138 362 l-118 345 -45 3 -44 3 -115 -338z m126 25 l40 -123 -84 -3 c-47 -2
-86 -2 -87 0 -5 5 80 248 86 248 3 0 24 -55 45 -122z"/>
<path d="M2610 1694 c0 -3 14 -10 30 -16 17 -6 32 -19 35 -31 3 -12 4 -164 3
-337 l-3 -315 -27 -13 c-16 -7 -28 -17 -28 -23 0 -5 103 -9 259 -9 l260 0 -4
138 c-2 75 -7 137 -11 137 -4 0 -13 -25 -21 -55 -17 -67 -53 -129 -94 -164
-24 -21 -41 -26 -83 -26 -28 0 -57 5 -64 12 -9 9 -12 96 -12 330 0 305 1 319
20 338 11 11 27 20 35 20 8 0 15 5 15 10 0 6 -58 10 -155 10 -85 0 -155 -2
-155 -6z"/>
<path d="M4080 1691 c0 -5 11 -12 25 -15 15 -4 30 -18 35 -32 11 -29 12 -595
1 -634 -4 -14 -16 -27 -31 -30 -13 -3 -25 -11 -28 -18 -6 -20 369 -17 437 4
215 64 195 334 -28 370 -41 7 -57 24 -23 24 32 0 107 58 131 101 51 90 4 192
-103 224 -56 17 -416 22 -416 6z m335 -35 c40 -40 46 -187 9 -258 -17 -33 -20
-34 -67 -43 l-37 -7 0 147 c0 82 5 155 10 166 15 26 56 24 85 -5z m13 -346
c44 -27 62 -74 62 -158 0 -116 -37 -172 -112 -172 -27 0 -40 6 -48 19 -6 11
-10 87 -10 175 l0 156 38 0 c20 0 52 -9 70 -20z"/>
<path d="M4790 1691 c0 -6 7 -11 15 -11 8 0 24 -9 35 -20 19 -19 20 -33 20
-333 0 -328 -2 -341 -44 -349 -11 -1 -21 -9 -24 -16 -3 -11 36 -13 210 -10
l215 3 58 30 c46 23 64 40 82 74 27 51 31 127 9 169 -28 54 -95 98 -169 110
l-41 7 57 29 c78 38 117 91 117 159 0 63 -25 105 -82 137 -41 24 -51 25 -250
28 -145 3 -208 0 -208 -7z m343 -43 c14 -18 22 -48 25 -88 9 -129 -19 -193
-90 -206 l-38 -6 0 150 c0 126 3 153 16 167 23 23 63 15 87 -17z m27 -353 c67
-64 60 -249 -12 -299 -33 -23 -95 -21 -108 3 -6 11 -10 88 -10 177 l0 157 50
-5 c38 -4 58 -12 80 -33z"/>
<path d="M3071 576 c-27 -42 -26 -46 3 -46 16 0 35 13 56 40 l32 40 -35 0
c-29 0 -39 -6 -56 -34z"/>
<path d="M2285 505 c-50 -18 -75 -48 -75 -90 0 -47 37 -87 101 -109 77 -26 99
-43 99 -71 0 -29 -26 -45 -73 -45 -33 0 -67 24 -67 48 0 7 -15 12 -35 12 -29
0 -35 -4 -35 -21 0 -30 51 -76 99 -89 103 -27 195 35 176 119 -8 38 -40 64
-113 91 -70 26 -82 36 -82 66 0 27 26 44 68 44 29 0 62 -26 62 -48 0 -7 15
-12 35 -12 39 0 42 8 20 50 -28 54 -112 80 -180 55z"/>
<path d="M3966 510 c-41 -13 -84 -58 -96 -99 -14 -52 -12 -146 4 -185 30 -72
100 -105 180 -85 52 13 83 42 92 87 6 30 5 32 -22 32 -22 -1 -34 -9 -49 -33
-25 -40 -78 -49 -116 -18 -21 17 -24 29 -27 99 -3 59 0 87 12 110 29 56 97 57
134 2 15 -22 31 -35 45 -35 19 0 22 5 20 33 -2 44 -34 77 -88 91 -50 12 -49
12 -89 1z"/>
<path d="M1870 325 l0 -185 126 0 125 0 -3 28 -3 27 -87 -4 -88 -3 0 56 0 56
76 0 75 0 -3 28 c-3 26 -5 27 -75 30 l-73 3 0 44 0 44 88 3 c87 3 87 3 90 31
l3 27 -125 0 -126 0 0 -185z"/>
<path d="M2560 480 c0 -30 1 -30 55 -30 l55 0 0 -155 0 -155 35 0 35 0 0 155
0 154 58 3 c54 3 57 4 60 31 l3 27 -150 0 -151 0 0 -30z"/>
<path d="M2950 325 l0 -185 126 0 125 0 -3 27 -3 28 -85 0 -85 0 -3 53 -3 52
75 0 76 0 0 30 0 30 -75 0 -75 0 0 45 0 44 88 3 c87 3 87 3 90 31 l3 27 -125
0 -126 0 0 -185z"/>
<path d="M3274 495 c-13 -33 4 -45 61 -45 l55 0 0 -155 0 -155 35 0 35 0 0
154 0 155 53 3 c48 3 52 5 55 31 l3 27 -146 0 c-120 0 -147 -3 -151 -15z"/>
<path d="M3670 325 l0 -185 35 0 35 0 0 185 0 185 -35 0 -35 0 0 -185z"/>
<path d="M4363 493 c-3 -10 -35 -92 -70 -183 -35 -90 -63 -166 -63 -167 0 -2
15 -3 33 -3 29 0 35 5 52 43 l20 42 67 3 66 3 17 -46 c16 -41 21 -45 51 -45
19 0 34 1 34 3 0 1 -31 83 -69 182 -67 178 -69 180 -100 183 -23 2 -33 -2 -38
-15z m62 -135 c10 -29 20 -59 23 -65 3 -9 -11 -13 -48 -13 -38 0 -51 4 -48 13
3 6 13 36 22 65 10 28 21 52 25 52 4 0 15 -24 26 -52z"/>
</g>
</svg>
